# xmcd
#
# Track frame offsets: 
#        150
#        14398
#        29581
#        51705
#        69033
#        86372
#        102577
#        116591
#        132329
#        156259
#
# Disc length: 2297 seconds
#
# Revision: 3
# Processed by: cddbd v1.5.2PL0 Copyright (c) Steve Scherf et al.
# Submitted via: ExactAudioCopy v0.99pb4
#
DISCID=8608f70a
DTITLE=Беломорканал - Блатная кровь
DYEAR=2000
DGENRE=Шансон
TTITLE0=Беломор и Волга-Балт
TTITLE1=Чифирок в карманчике
TTITLE2=Белый лебедь - чёрный ворон
TTITLE3=Срок
TTITLE4=Побег
TTITLE5=Про ментов
TTITLE6=Самко
TTITLE7=Поездка в Москву
TTITLE8=Сын прокурора
TTITLE9=Бабская прожарка
EXTD=
EXTT0=
EXTT1=
EXTT2=
EXTT3=
EXTT4=
EXTT5=
EXTT6=
EXTT7=
EXTT8=
EXTT9=
PLAYORDER=
